<svg version="1.1" xmlns="http://www.w3.org/2000/svg" viewBox="0 0 24 24" class="size-6 shrink-0 fill-primary"><path fill="currentColor" d="M11.9,2C9.7,2,7.5,2.8,5.7,4.2l1.9,2.2c1.6-1.3,3.7-1.8,5.7-1.4c1.1,0.2,2.1,0.7,3,1.4l1.9-2.2C16.5,2.8,14.2,2,11.9,2z M5.1,4.7C3.1,6.6,2,9.3,2,12.1c0,2.8,1.3,5.6,3.5,7.5c2,1.7,4.7,2.6,7.3,2.4c2.9-0.2,5.6-1.7,7.3-4.1c1.6-2.2,2.3-5.1,1.7-7.8c-0.4-2.1-1.5-4-3-5.4l-1.9,2.2c1.5,1.4,2.4,3.6,2.2,5.6c-0.1,1-0.4,2.1-0.9,3l-3.8-3.7l-1.9-4.2l0,6.3l3.9,3.8c-1.7,1.3-4.1,1.8-6.2,1.2c-0.9-0.2-1.7-0.6-2.4-1.2l3.9-3.8c0-2.1,0-4.3,0-6.3l-1.9,4.2l-3.9,3.7c-1.2-2.1-1.2-4.7-0.1-6.8C6.1,8,6.6,7.4,7.1,6.8L5.1,4.7C5.2,4.7,5.2,4.7,5.1,4.7z"></path></svg>